<svg version="1.2" xmlns="http://www.w3.org/2000/svg" viewBox="0 0 1280 320" width="1280" height="320">
	<title>wave-bg</title>
	<style>
		.s0 { opacity: .5;fill: #ffffff } 
		.s1 { fill: #ffffff } 
	</style>
	<g id="Background">
		<path id="Path 0" class="s0" d="m374.5 55.7c11.6 0.2 30.2 0.2 41.5 0 11.3-0.1 1.8-0.2-21-0.2-22.8 0-32.1 0.1-20.5 0.2z"/>
		<path id="Path 1" class="s0" d="m321 56.7c3 0.2 7.5 0.2 10 0 2.5-0.2 0-0.3-5.5-0.3-5.5 0-7.5 0.1-4.5 0.3z"/>
		<path id="Path 2" class="s1" d="m327.5 56.7c-4.4 0.1-18.8 0.7-32 1.3-13.2 0.6-34.4 1.7-47 2.6-12.7 0.8-35.4 2.6-50.5 4-15.1 1.3-41.7 4-59 6-17.3 1.9-49.7 5.9-72 8.9-22.3 3-44.5 5.9-49.5 6.4-5 0.6-10.9 1.3-13.3 1.6l-4.2 0.5v632h1280v-632c-5.8 0.7-10.4 1.2-14 1.5-3.6 0.3-18.4 1.3-33 2.1-14.6 0.9-51.9 1.8-83 2.1-35.1 0.4-69 0.1-89.5-0.6-18.2-0.7-45.4-1.8-60.5-2.7-15.1-0.8-41-2.3-57.5-3.4-16.5-1.1-45.3-3.2-64-4.5-18.7-1.4-60.8-4.5-93.5-7-32.7-2.4-79.3-5.8-103.5-7.4-24.2-1.7-59.3-4-78-5.1-18.7-1.1-48.4-2.7-66-3.5-17.6-0.8-45.5-1.9-62-2.5-16.5-0.5-54.8-0.9-85-0.8-30.3 0.1-58.6 0.3-63 0.5z"/>
		<path id="Path 3" class="s0" d="m461.5 56.7c2.8 0.2 7.5 0.2 10.5 0 3-0.2 0.8-0.3-5-0.3-5.8 0-8.3 0.1-5.5 0.3z"/>
		<path id="Path 4" class="s0" d="m294.5 57.7c1.6 0.2 4.8 0.2 7 0 2.2-0.2 0.9-0.4-3-0.4-3.9 0-5.6 0.2-4 0.4z"/>
		<path id="Path 5" class="s0" d="m494 57.7c2.5 0.2 6.1 0.2 8 0 1.9-0.2-0.1-0.4-4.5-0.4-4.4 0-6 0.2-3.5 0.4z"/>
		<path id="Path 6" class="s0" d="m518.5 58.7c1.6 0.2 4.8 0.2 7 0 2.2-0.2 0.9-0.4-3-0.4-3.9 0-5.6 0.2-4 0.4z"/>
		<path id="Path 7" class="s0" d="m1022.5 91.7c1.7 0.2 4.8 0.2 7 0 2.2-0.2 0.8-0.4-3-0.4-3.9 0-5.6 0.2-4 0.4z"/>
		<path id="Path 8" class="s0" d="m1047.5 92.7c2.2 0.2 6 0.2 8.5 0 2.5-0.2 0.7-0.4-4-0.4-4.7 0-6.7 0.2-4.5 0.4z"/>
		<path id="Path 9" class="s0" d="m1202.5 92.7c1.7 0.2 4.8 0.2 7 0 2.2-0.2 0.8-0.4-3-0.4-3.8 0-5.7 0.2-4 0.4z"/>
		<path id="Path 10" class="s0" d="m1079 93.7c3.6 0.2 9.9 0.2 14 0 4.1-0.1 1.2-0.3-6.5-0.3-7.7 0-11.1 0.1-7.5 0.3z"/>
		<path id="Path 11" class="s0" d="m1168.5 93.7c3.8 0.2 9.7 0.2 13 0 3.3-0.2 0.2-0.3-7-0.3-7.2 0-9.8 0.1-6 0.3z"/>
	</g>
</svg>